<mxfile host="app.diagrams.net" modified="2022-01-17T08:30:42.275Z" agent="5.0 (Macintosh; Intel Mac OS X 10_15_7) AppleWebKit/537.36 (KHTML, like Gecko) Chrome/97.0.4692.71 Safari/537.36" etag="6OEQ6cwFqY_WOatqkdR6" version="16.2.7" type="github">
  <diagram id="rbAwEeXNuUjx4V6ViA0t" name="Home Page">
    <mxGraphModel dx="946" dy="646" grid="1" gridSize="10" guides="1" tooltips="1" connect="1" arrows="1" fold="1" page="1" pageScale="1" pageWidth="3300" pageHeight="4681" background="#FFFFFF" math="0" shadow="0">
      <root>
        <mxCell id="0" />
        <mxCell id="1" parent="0" />
        <mxCell id="JtJ2rN92n4heIr2tVQup-1" value="iStartupWings" style="swimlane;" vertex="1" parent="1">
          <mxGeometry x="400" y="160" width="1240" height="970" as="geometry" />
        </mxCell>
        <mxCell id="JtJ2rN92n4heIr2tVQup-4" value="" style="ellipse;whiteSpace=wrap;html=1;aspect=fixed;" vertex="1" parent="JtJ2rN92n4heIr2tVQup-1">
          <mxGeometry x="20" y="30" width="80" height="80" as="geometry" />
        </mxCell>
        <mxCell id="JtJ2rN92n4heIr2tVQup-5" value="iStartupWings Logo" style="text;html=1;strokeColor=none;fillColor=none;align=center;verticalAlign=middle;whiteSpace=wrap;rounded=0;" vertex="1" parent="JtJ2rN92n4heIr2tVQup-1">
          <mxGeometry x="30" y="60" width="60" height="30" as="geometry" />
        </mxCell>
        <mxCell id="JtJ2rN92n4heIr2tVQup-6" value="Powered By" style="text;html=1;strokeColor=none;fillColor=none;align=center;verticalAlign=middle;whiteSpace=wrap;rounded=0;" vertex="1" parent="JtJ2rN92n4heIr2tVQup-1">
          <mxGeometry x="130" y="55" width="100" height="30" as="geometry" />
        </mxCell>
        <mxCell id="JtJ2rN92n4heIr2tVQup-7" value="" style="ellipse;whiteSpace=wrap;html=1;aspect=fixed;" vertex="1" parent="JtJ2rN92n4heIr2tVQup-1">
          <mxGeometry x="260" y="30" width="80" height="80" as="geometry" />
        </mxCell>
        <mxCell id="JtJ2rN92n4heIr2tVQup-8" value="India Accelerator Logo" style="text;html=1;strokeColor=none;fillColor=none;align=center;verticalAlign=middle;whiteSpace=wrap;rounded=0;" vertex="1" parent="JtJ2rN92n4heIr2tVQup-1">
          <mxGeometry x="270" y="60" width="60" height="30" as="geometry" />
        </mxCell>
        <mxCell id="JtJ2rN92n4heIr2tVQup-9" value="" style="rounded=1;whiteSpace=wrap;html=1;" vertex="1" parent="JtJ2rN92n4heIr2tVQup-1">
          <mxGeometry x="730" y="50" width="470" height="60" as="geometry" />
        </mxCell>
        <mxCell id="JtJ2rN92n4heIr2tVQup-10" value="Our Models" style="text;html=1;strokeColor=none;fillColor=none;align=center;verticalAlign=middle;whiteSpace=wrap;rounded=0;" vertex="1" parent="JtJ2rN92n4heIr2tVQup-1">
          <mxGeometry x="750" y="70" width="100" height="30" as="geometry" />
        </mxCell>
        <mxCell id="JtJ2rN92n4heIr2tVQup-11" value="Our Team" style="text;html=1;strokeColor=none;fillColor=none;align=center;verticalAlign=middle;whiteSpace=wrap;rounded=0;" vertex="1" parent="JtJ2rN92n4heIr2tVQup-1">
          <mxGeometry x="910" y="70" width="100" height="30" as="geometry" />
        </mxCell>
        <mxCell id="JtJ2rN92n4heIr2tVQup-12" value="Contact Us" style="text;html=1;strokeColor=none;fillColor=none;align=center;verticalAlign=middle;whiteSpace=wrap;rounded=0;" vertex="1" parent="JtJ2rN92n4heIr2tVQup-1">
          <mxGeometry x="1080" y="70" width="100" height="30" as="geometry" />
        </mxCell>
        <mxCell id="JtJ2rN92n4heIr2tVQup-13" value="&lt;div style=&quot;font-size: 18px&quot;&gt;&lt;font style=&quot;font-size: 18px&quot;&gt;iStartupWings - Give wings to your ideas. Build fast, build at scale, build together.&amp;nbsp;&lt;/font&gt;&lt;/div&gt;&lt;div style=&quot;font-size: 18px&quot;&gt;&lt;font style=&quot;font-size: 18px&quot;&gt;&lt;br&gt;&lt;/font&gt;&lt;/div&gt;&lt;div style=&quot;font-size: 15px&quot;&gt;&lt;font style=&quot;font-size: 15px&quot;&gt;iStartupWings is a startup platform in collaboration with India Accelerator to help young idea stage startups and founders. We ideate and invest in your ideas to turn your bright ideas into successful and scalable startups. Join us and bring your dreams to fruition.&amp;nbsp;&lt;/font&gt;&lt;/div&gt;" style="rounded=1;whiteSpace=wrap;html=1;" vertex="1" parent="JtJ2rN92n4heIr2tVQup-1">
          <mxGeometry x="250" y="160" width="720" height="200" as="geometry" />
        </mxCell>
        <mxCell id="JtJ2rN92n4heIr2tVQup-14" value="Our Models" style="rounded=1;whiteSpace=wrap;html=1;fontSize=18;" vertex="1" parent="JtJ2rN92n4heIr2tVQup-1">
          <mxGeometry x="550" y="440" width="120" height="80" as="geometry" />
        </mxCell>
        <mxCell id="JtJ2rN92n4heIr2tVQup-15" value="" style="whiteSpace=wrap;html=1;aspect=fixed;fontSize=18;" vertex="1" parent="JtJ2rN92n4heIr2tVQup-1">
          <mxGeometry x="10" y="560" width="200" height="200" as="geometry" />
        </mxCell>
        <mxCell id="JtJ2rN92n4heIr2tVQup-16" value="" style="whiteSpace=wrap;html=1;aspect=fixed;fontSize=18;" vertex="1" parent="JtJ2rN92n4heIr2tVQup-1">
          <mxGeometry x="240" y="560" width="200" height="200" as="geometry" />
        </mxCell>
        <mxCell id="JtJ2rN92n4heIr2tVQup-17" value="" style="whiteSpace=wrap;html=1;aspect=fixed;fontSize=18;" vertex="1" parent="JtJ2rN92n4heIr2tVQup-1">
          <mxGeometry x="480" y="560" width="200" height="200" as="geometry" />
        </mxCell>
        <mxCell id="JtJ2rN92n4heIr2tVQup-18" value="" style="whiteSpace=wrap;html=1;aspect=fixed;fontSize=18;" vertex="1" parent="JtJ2rN92n4heIr2tVQup-1">
          <mxGeometry x="720" y="560" width="200" height="200" as="geometry" />
        </mxCell>
        <mxCell id="JtJ2rN92n4heIr2tVQup-19" value="" style="whiteSpace=wrap;html=1;aspect=fixed;fontSize=18;" vertex="1" parent="JtJ2rN92n4heIr2tVQup-1">
          <mxGeometry x="960" y="560" width="200" height="200" as="geometry" />
        </mxCell>
        <mxCell id="JtJ2rN92n4heIr2tVQup-20" value="Venture Builder" style="text;html=1;strokeColor=none;fillColor=none;align=center;verticalAlign=middle;whiteSpace=wrap;rounded=0;fontSize=18;" vertex="1" parent="JtJ2rN92n4heIr2tVQup-1">
          <mxGeometry x="20" y="600" width="170" height="30" as="geometry" />
        </mxCell>
        <mxCell id="JtJ2rN92n4heIr2tVQup-21" value="Know More" style="rounded=1;whiteSpace=wrap;html=1;fontSize=18;" vertex="1" parent="JtJ2rN92n4heIr2tVQup-1">
          <mxGeometry x="50" y="670" width="120" height="30" as="geometry" />
        </mxCell>
        <mxCell id="JtJ2rN92n4heIr2tVQup-22" value="Page 2" style="text;html=1;strokeColor=none;fillColor=none;align=center;verticalAlign=middle;whiteSpace=wrap;rounded=0;fontSize=18;" vertex="1" parent="JtJ2rN92n4heIr2tVQup-1">
          <mxGeometry x="70" y="720" width="70" height="30" as="geometry" />
        </mxCell>
        <mxCell id="JtJ2rN92n4heIr2tVQup-23" value="CTO - As a Service" style="text;html=1;strokeColor=none;fillColor=none;align=center;verticalAlign=middle;whiteSpace=wrap;rounded=0;fontSize=18;" vertex="1" parent="JtJ2rN92n4heIr2tVQup-1">
          <mxGeometry x="260" y="600" width="170" height="30" as="geometry" />
        </mxCell>
        <mxCell id="JtJ2rN92n4heIr2tVQup-24" value="Know More" style="rounded=1;whiteSpace=wrap;html=1;fontSize=18;" vertex="1" parent="JtJ2rN92n4heIr2tVQup-1">
          <mxGeometry x="290" y="670" width="120" height="30" as="geometry" />
        </mxCell>
        <mxCell id="JtJ2rN92n4heIr2tVQup-25" value="Page 3" style="text;html=1;strokeColor=none;fillColor=none;align=center;verticalAlign=middle;whiteSpace=wrap;rounded=0;fontSize=18;" vertex="1" parent="JtJ2rN92n4heIr2tVQup-1">
          <mxGeometry x="310" y="720" width="70" height="30" as="geometry" />
        </mxCell>
        <mxCell id="JtJ2rN92n4heIr2tVQup-26" value="Founder Growth" style="text;html=1;strokeColor=none;fillColor=none;align=center;verticalAlign=middle;whiteSpace=wrap;rounded=0;fontSize=18;" vertex="1" parent="JtJ2rN92n4heIr2tVQup-1">
          <mxGeometry x="495" y="600" width="170" height="30" as="geometry" />
        </mxCell>
        <mxCell id="JtJ2rN92n4heIr2tVQup-27" value="Know More" style="rounded=1;whiteSpace=wrap;html=1;fontSize=18;" vertex="1" parent="JtJ2rN92n4heIr2tVQup-1">
          <mxGeometry x="525" y="670" width="120" height="30" as="geometry" />
        </mxCell>
        <mxCell id="JtJ2rN92n4heIr2tVQup-28" value="Page 4" style="text;html=1;strokeColor=none;fillColor=none;align=center;verticalAlign=middle;whiteSpace=wrap;rounded=0;fontSize=18;" vertex="1" parent="JtJ2rN92n4heIr2tVQup-1">
          <mxGeometry x="545" y="720" width="70" height="30" as="geometry" />
        </mxCell>
        <mxCell id="JtJ2rN92n4heIr2tVQup-29" value="Wings Power" style="text;html=1;strokeColor=none;fillColor=none;align=center;verticalAlign=middle;whiteSpace=wrap;rounded=0;fontSize=18;" vertex="1" parent="JtJ2rN92n4heIr2tVQup-1">
          <mxGeometry x="735" y="600" width="170" height="30" as="geometry" />
        </mxCell>
        <mxCell id="JtJ2rN92n4heIr2tVQup-30" value="Know More" style="rounded=1;whiteSpace=wrap;html=1;fontSize=18;" vertex="1" parent="JtJ2rN92n4heIr2tVQup-1">
          <mxGeometry x="765" y="670" width="120" height="30" as="geometry" />
        </mxCell>
        <mxCell id="JtJ2rN92n4heIr2tVQup-31" value="Page 5" style="text;html=1;strokeColor=none;fillColor=none;align=center;verticalAlign=middle;whiteSpace=wrap;rounded=0;fontSize=18;" vertex="1" parent="JtJ2rN92n4heIr2tVQup-1">
          <mxGeometry x="785" y="720" width="70" height="30" as="geometry" />
        </mxCell>
        <mxCell id="JtJ2rN92n4heIr2tVQup-32" value="Tech Builders" style="text;html=1;strokeColor=none;fillColor=none;align=center;verticalAlign=middle;whiteSpace=wrap;rounded=0;fontSize=18;" vertex="1" parent="JtJ2rN92n4heIr2tVQup-1">
          <mxGeometry x="975" y="600" width="170" height="30" as="geometry" />
        </mxCell>
        <mxCell id="JtJ2rN92n4heIr2tVQup-33" value="Know More" style="rounded=1;whiteSpace=wrap;html=1;fontSize=18;" vertex="1" parent="JtJ2rN92n4heIr2tVQup-1">
          <mxGeometry x="1005" y="670" width="120" height="30" as="geometry" />
        </mxCell>
        <mxCell id="JtJ2rN92n4heIr2tVQup-34" value="Page 6" style="text;html=1;strokeColor=none;fillColor=none;align=center;verticalAlign=middle;whiteSpace=wrap;rounded=0;fontSize=18;" vertex="1" parent="JtJ2rN92n4heIr2tVQup-1">
          <mxGeometry x="1025" y="720" width="70" height="30" as="geometry" />
        </mxCell>
        <mxCell id="JtJ2rN92n4heIr2tVQup-3" value="" style="endArrow=none;html=1;rounded=0;" edge="1" parent="1">
          <mxGeometry width="50" height="50" relative="1" as="geometry">
            <mxPoint x="400" y="280" as="sourcePoint" />
            <mxPoint x="1640" y="280" as="targetPoint" />
          </mxGeometry>
        </mxCell>
      </root>
    </mxGraphModel>
  </diagram>
</mxfile>
